HIERARCHY
ROOT Hips
{
  OFFSET 48.1151 93.7009 3.97774
  CHANNELS 6 Xposition Yposition Zposition Zrotation Xrotation Yrotation
  JOINT spine
  {
    OFFSET 0 7.80059 0.448573
    CHANNELS 3 Zrotation Xrotation Yrotation
    JOINT spine1
    {
      OFFSET 0 10.1364 0
      CHANNELS 3 Zrotation Xrotation Yrotation
      JOINT spine2
      {
        OFFSET 0 9.71251 0
        CHANNELS 3 Zrotation Xrotation Yrotation
        JOINT Neck
        {
          OFFSET 0 24.9361 1.18887
          CHANNELS 3 Zrotation Xrotation Yrotation
          JOINT Head
          {
            OFFSET 0 7.53384 0
            CHANNELS 3 Zrotation Xrotation Yrotation
            End Site
            {
              OFFSET 0 18.2361 -6.01402
            }
          }
        }
        JOINT RightShoulder
        {
          OFFSET -4.08965 10.4888 -0.569457
          CHANNELS 3 Zrotation Xrotation Yrotation
          JOINT RightArm
          {
            OFFSET 0 13.757 0
            CHANNELS 3 Zrotation Xrotation Yrotation
            JOINT RightArmRoll
            {
              OFFSET 0 6.94478 0
              CHANNELS 3 Zrotation Xrotation Yrotation
              JOINT RightForeArm
              {
                OFFSET 0 20.2277 0
                CHANNELS 3 Zrotation Xrotation Yrotation
                JOINT RightForeArmRoll
                {
                  OFFSET 0 7.79312 0
                  CHANNELS 3 Zrotation Xrotation Yrotation
                  JOINT RightHand
                  {
                    OFFSET 0 15.6391 0
                    CHANNELS 3 Zrotation Xrotation Yrotation
                    End Site
                    {
                      OFFSET 0 0 0
                    }
                  }
                }
              }
            }
          }
        }
        JOINT LeftShoulder
        {
          OFFSET 4.08965 10.4888 -0.569457
          CHANNELS 3 Zrotation Xrotation Yrotation
          JOINT LeftArm
          {
            OFFSET 0 13.757 0
            CHANNELS 3 Zrotation Xrotation Yrotation
            JOINT LeftArmRoll
            {
              OFFSET 0 6.94478 0
              CHANNELS 3 Zrotation Xrotation Yrotation
              JOINT LeftForeArm
              {
                OFFSET 0 20.2277 0
                CHANNELS 3 Zrotation Xrotation Yrotation
                JOINT LeftForeArmRoll
                {
                  OFFSET 0 7.79312 0
                  CHANNELS 3 Zrotation Xrotation Yrotation
                  JOINT LeftHand
                  {
                    OFFSET 0 15.6391 0
                    CHANNELS 3 Zrotation Xrotation Yrotation
                    End Site
                    {
                      OFFSET 0 0 0
                    }
                  }
                }
              }
            }
          }
        }
      }
    }
  }
  JOINT RightUpLeg
  {
    OFFSET -6.91416 -1.26788 -1.06358
    CHANNELS 3 Zrotation Xrotation Yrotation
    JOINT RightUpLegRoll
    {
      OFFSET 0 18.3378 0
      CHANNELS 3 Zrotation Xrotation Yrotation
      JOINT RightLeg
      {
        OFFSET 0 -22.7085 0
        CHANNELS 3 Zrotation Xrotation Yrotation
        JOINT RightLegRoll
        {
          OFFSET 0 22.7828 0
          CHANNELS 3 Zrotation Xrotation Yrotation
          JOINT RightFoot
          {
            OFFSET 0 18.9629 0
            CHANNELS 3 Zrotation Xrotation Yrotation
            JOINT RightToeBase
            {
              OFFSET 0 15.852 0
              CHANNELS 3 Zrotation Xrotation Yrotation
              End Site
              {
                OFFSET 0.00671906 7.677 -0.884893
              }
            }
          }
        }
      }
    }
  }
  JOINT LeftUpLeg
  {
    OFFSET 6.91416 -1.26788 -1.06358
    CHANNELS 3 Zrotation Xrotation Yrotation
    JOINT LeftUpLegRoll
    {
      OFFSET 0 18.3379 0
      CHANNELS 3 Zrotation Xrotation Yrotation
      JOINT LeftLeg
      {
        OFFSET 0 22.7084 0
        CHANNELS 3 Zrotation Xrotation Yrotation
        JOINT LeftLegRoll
        {
          OFFSET 0 22.9934 0
          CHANNELS 3 Zrotation Xrotation Yrotation
          JOINT LeftFoot
          {
            OFFSET 0 18.7522 0
            CHANNELS 3 Zrotation Xrotation Yrotation
            JOINT LeftToeBase
            {
              OFFSET 0 15.852 0
              CHANNELS 3 Zrotation Xrotation Yrotation
              End Site
              {
                OFFSET -0.030112 7.67701 -0.884892
              }
            }
          }
        }
      }
    }
  }
}
MOTION
Frames: 5
Frame Time: 0.00208333
48.453 93.5549 11.2266 0.464473 -3.38391 0.723728 0.0994657 0.141504 0.286642 0.196533 4.2796 0.560357 0.189676 5.92464 0.557741 -13.2055 16.8122 0.383173 12.0809 -15.9359 -0.656822 71.9758 -5.38582 -4.07823 98.5119 9.81385 9.58601 -2.09766e-005 -1.2729e-007 -8.7499e-007 12.7498 22.9467 -3.77835 -3.6371e-006 7.61885e-007 -3 8.02886 -4.95159 0.697758 -65.7828 -1.81833 1.82418 -105.949 -0.60288 -13.406 -1.0478e-005 1.76413e-006 4.33026e-007 -5.62104 21.4383 2.38682 1.57638e-006 2.10261e-007 3 -8.02951 -4.95156 -0.697709 -176.828 4.30417 -2.93369 180 7.01511e-015 178.776 178.984 16.3376 179.524 6.61056e-007 -5.43116e-006 0.514044 -25.8472 71.6723 23.6085 8.13185 25.2343 -3.48551 177.059 3.4327 8.10684 4.54188e-006 -4.6773e-006 -1.47179 -4.9921 -16.8309 -0.475117 6.26103e-006 -2.59136e-006 -0.361789 27.4283 72.9082 -25.3664 -8.13332 25.2372 3.48638 
48.4495 93.6138 11.2069 0.464653 -3.36273 0.721204 0.100721 0.148003 0.28539 0.199724 4.29309 0.557832 0.192439 5.93813 0.555199 -13.2512 16.7097 0.37153 12.1212 -15.945 -0.659824 71.9149 -5.39469 -4.07927 98.5773 9.7706 9.50316 -2.09766e-005 -1.2729e-007 -8.7499e-007 12.7824 23.0567 -3.79843 -3.6371e-006 7.61885e-007 -3 8.02886 -4.95159 0.697758 -65.7543 -1.83247 1.82908 -105.988 -0.57375 -13.4742 -1.0478e-005 1.76413e-006 4.33027e-007 -5.55551 21.2619 2.35796 1.57638e-006 2.10261e-007 3 -8.02951 -4.95156 -0.697709 -176.82 4.34648 -2.94218 180 7.01511e-015 178.776 178.991 16.402 179.521 6.61056e-007 -5.43116e-006 0.514314 -25.897 71.7112 23.6606 8.13185 25.2343 -3.48551 177.091 3.40405 8.03235 4.54188e-006 -4.6773e-006 -1.46483 -5.04339 -16.7719 -0.483175 6.26103e-006 -2.59136e-006 -0.363921 27.5356 72.8971 -25.3676 -8.13332 25.2372 3.48638 
48.4514 93.598 11.2322 0.464818 -3.34206 0.718663 0.102017 0.154489 0.284109 0.203047 4.30656 0.555255 0.195303 5.9516 0.552604 -13.2979 16.608 0.360234 12.1622 -15.9542 -0.662651 71.8535 -5.40354 -4.08026 98.6428 9.72575 9.41781 -2.09766e-005 -1.2729e-007 -8.7499e-007 12.8164 23.1706 -3.81926 -3.6371e-006 7.61885e-007 -3 8.02886 -4.95159 0.697758 -65.7252 -1.84667 1.83395 -106.026 -0.546156 -13.54 -1.0478e-005 1.76413e-006 4.33027e-007 -5.49292 21.0879 2.32968 1.57638e-006 2.10261e-007 3 -8.02951 -4.95156 -0.697709 -176.814 4.38548 -2.95023 180 7.01511e-015 178.777 178.998 16.4611 179.518 6.61056e-007 -5.43116e-006 0.514399 -25.9441 71.7479 23.7099 8.13185 25.2343 -3.48551 177.123 3.37074 7.95909 4.54188e-006 -4.6773e-006 -1.45762 -5.09367 -16.7063 -0.490835 6.26103e-006 -2.59136e-006 -0.365898 27.6387 72.8837 -25.3649 -8.13332 25.2372 3.48638 
48.4392 93.5918 11.2302 0.464971 -3.32176 0.716109 0.103341 0.160965 0.282808 0.206462 4.32003 0.552641 0.198239 5.96507 0.549972 -13.3451 16.5067 0.349184 12.2038 -15.9635 -0.665355 71.7917 -5.41237 -4.08121 98.7083 9.67976 9.33072 -2.09766e-005 -1.2729e-007 -8.7499e-007 12.8513 23.2873 -3.84064 -3.6371e-006 7.61885e-007 -3 8.02886 -4.95159 0.697758 -65.6955 -1.86092 1.83879 -106.064 -0.519642 -13.6042 -1.0478e-005 1.76413e-006 4.33026e-007 -5.43244 20.9155 2.30183 1.57638e-006 2.10261e-007 3 -8.02951 -4.95156 -0.697709 -176.807 4.42217 -2.95797 180 7.01511e-015 178.778 179.004 16.5164 179.516 6.61057e-007 -5.43116e-006 0.514356 -25.9895 71.7829 23.7572 8.13185 25.2343 -3.48551 177.155 3.33415 7.88668 4.54188e-006 -4.6773e-006 -1.45023 -5.14323 -16.6362 -0.498215 6.26103e-006 -2.59136e-006 -0.367766 27.7389 72.8685 -25.3593 -8.13332 25.2372 3.48638 
48.4444 93.5857 11.2481 0.46512 -3.30167 0.713549 0.104682 0.167436 0.281495 0.20993 4.33349 0.550006 0.201216 5.97853 0.547319 -13.3928 16.4058 0.33828 12.2458 -15.9729 -0.667989 71.7298 -5.42119 -4.08215 98.7736 9.63309 9.24265 -2.09766e-005 -1.2729e-007 -8.7499e-007 12.8868 23.4055 -3.86235 -3.6371e-006 7.61885e-007 -3 8.02886 -4.95159 0.697758 -65.6656 -1.87518 1.84362 -106.103 -0.493749 -13.6673 -1.0478e-005 1.76413e-006 4.33027e-007 -5.37325 20.7441 2.27426 1.57638e-006 2.10261e-007 3 -8.02951 -4.95156 -0.697709 -176.8 4.45753 -2.96553 180 7.01512e-015 178.779 179.01 16.5696 179.513 6.61056e-007 -5.43116e-006 0.51424 -26.0339 71.817 23.8035 8.13185 25.2343 -3.48551 177.187 3.29569 7.81476 4.54188e-006 -4.67731e-006 -1.44273 -5.19237 -16.5635 -0.505434 6.26103e-006 -2.59136e-006 -0.369572 27.8374 72.8525 -25.3522 -8.13332 25.2372 3.48638 
